<?xml version="1.0" encoding="UTF-8"?>
<svg id="Layer_1" data-name="Layer 1" xmlns="http://www.w3.org/2000/svg" viewBox="0 0 147.4 61.18">
  <defs>
    <style>
      .cls-1 {
        fill: #74c4e7;
      }

      .cls-1, .cls-2, .cls-3 {
        stroke-width: 0px;
      }

      .cls-2 {
        fill: #44c0b8;
      }

      .cls-3 {
        fill: #f0543b;
      }
    </style>
  </defs>
  <path class="cls-1" d="M124.89,18.16c-11.73,0-21.25,9.51-21.25,21.25,0,2.16.32,4.24.92,6.21h-2.91c-1.65,8.01-6.41,14.04-12.21,15.04h33.9c-.17-.03-.33-.06-.49-.1.67.06,1.35.1,2.03.1,11.73,0,21.25-9.51,21.25-21.25s-9.51-21.25-21.25-21.25M124.89,45.62c-3.43,0-6.21-2.78-6.21-6.21s2.78-6.21,6.21-6.21,6.21,2.78,6.21,6.21-2.78,6.21-6.21,6.21Z"/>
  <path class="cls-3" d="M43.76,39.41h-15.04c0,3.43-2.78,6.21-6.21,6.21s-6.21-2.78-6.21-6.21v-14.6H1.27v14.6c0,11.73,9.51,21.25,21.25,21.25s21.25-9.51,21.25-21.25Z"/>
  <path class="cls-2" d="M84.67,39.41c0,3.43-2.78,6.21-6.21,6.21s-6.21-2.78-6.21-6.21v-14.6l-.06-3.03c0-11.73-9.51-21.25-21.25-21.25s-21.25,9.51-21.25,21.25h15.04c0-3.43,2.78-6.21,6.21-6.21s6.21,2.78,6.21,6.21l.06,3.03v14.6c0,11.73,9.51,21.25,21.25,21.25s21.25-9.51,21.25-21.25h-15.04Z"/>
  <path class="cls-1" d="M124.89,3.56c-3.43,0-6.21,2.78-6.21,6.21s2.78,6.21,6.21,6.21c3.43,0,6.21-2.78,6.21-6.21s-2.78-6.21-6.21-6.21Z"/>
  <circle class="cls-2" cx="92.31" cy="30.97" r="6.21"/>
  <circle class="cls-3" cx="37.56" cy="30.97" r="6.21"/>
</svg>